<?xml version="1.0" encoding="iso-8859-1"?>
<!-- Generator: Adobe Illustrator 18.0.0, SVG Export Plug-In . SVG Version: 6.00 Build 0)  -->
<!DOCTYPE svg PUBLIC "-//W3C//DTD SVG 1.1//EN" "http://www.w3.org/Graphics/SVG/1.1/DTD/svg11.dtd">
<svg version="1.1" id="Capa_1" xmlns="http://www.w3.org/2000/svg" xmlns:xlink="http://www.w3.org/1999/xlink" x="0px" y="0px" fill="#a74170" height="30px" width="30px"
	 viewBox="0 0 290.236 290.236" style="enable-background:new 0 0 290.236 290.236;" xml:space="preserve">
<g>
	<path d="M184.087,134.359c0-5.034-4.081-9.115-9.115-9.115h-59.707c-5.034,0-9.115,4.081-9.115,9.115
		c0,5.034,4.081,9.115,9.115,9.115v128.531c-5.034,0-9.115,4.081-9.115,9.115c0,5.034,4.081,9.115,9.115,9.115h59.707
		c5.034,0,9.115-4.081,9.115-9.115c0-5.034-4.081-9.115-9.115-9.115V143.474C180.006,143.474,184.087,139.393,184.087,134.359z"/>
	<path d="M89.398,134.359c0-5.034-4.081-9.115-9.115-9.115H20.576c-5.034,0-9.115,4.081-9.115,9.115
		c0,5.034,4.081,9.115,9.115,9.115v128.531c-5.034,0-9.115,4.081-9.115,9.115c0,5.034,4.081,9.115,9.115,9.115h59.707
		c5.034,0,9.115-4.081,9.115-9.115c0-5.034-4.081-9.115-9.115-9.115V143.474C85.317,143.474,89.398,139.393,89.398,134.359z"/>
	<path d="M278.775,134.359c0-5.034-4.081-9.115-9.115-9.115h-59.707c-5.034,0-9.115,4.081-9.115,9.115
		c0,5.034,4.081,9.115,9.115,9.115v128.531c-5.034,0-9.115,4.081-9.115,9.115c0,5.034,4.081,9.115,9.115,9.115h59.707
		c5.034,0,9.115-4.081,9.115-9.115c0-5.034-4.081-9.115-9.115-9.115V143.474C274.694,143.474,278.775,139.393,278.775,134.359z"/>
	<path d="M287.712,95.29L153.957,2.759c-5.318-3.679-12.359-3.679-17.678,0L2.524,95.29c-1.352,0.937-1.94,2.644-1.45,4.214
		c0.49,1.57,1.944,2.64,3.59,2.64h280.908c1.646,0,3.1-1.069,3.59-2.64C289.652,97.934,289.064,96.227,287.712,95.29z"/>
</g>
<g>
</g>
<g>
</g>
<g>
</g>
<g>
</g>
<g>
</g>
<g>
</g>
<g>
</g>
<g>
</g>
<g>
</g>
<g>
</g>
<g>
</g>
<g>
</g>
<g>
</g>
<g>
</g>
<g>
</g>
</svg>
